PathFileType	4	(X/Y/Z)	Kaydara																																																																																																																									
DataRate	CameraRate	NumFrames	NumMarkers	Units	OrigDataRate	OrigDataStartFrame	OrigNumFrames																																																																																																																					
30	30	6	41	mm	30	19	145																																																																																																																					
Frame#	Time	NABA_LFHD			NABA_RFHD			NABA_LBHD			NABA_RBHD			NABA_LFTShould			NABA_RFTShould			NABA_LRRShould			NABA_RRRShould			NABA_T10			NABA_STRN			NABA_TRUN			NABA_LSHO			NABA_LUPA			NABA_LELB			NABA_LFRM			NABA_LWRA			NABA_LWRB			NABA_LFIN			NABA_RSHO			NABA_RUPA			NABA_RELB			NABA_RFRM			NABA_RWRA			NABA_RWRB			NABA_RFIN			NABA_LFWT			NABA_RFWT			NABA_LBWT			NABA_RBWT			NABA_LTHI			NABA_LKNE			NABA_LSHN			NABA_LANK			NABA_LHEE			NABA_LTOE			NABA_RTHI			NABA_RKNE			NABA_RSHN			NABA_RANK			NABA_RHEE			NABA_RTOE		
		X1	Y1	Z1	X2	Y2	Z2	X3	Y3	Z3	X4	Y4	Z4	X5	Y5	Z5	X6	Y6	Z6	X7	Y7	Z7	X8	Y8	Z8	X9	Y9	Z9	X10	Y10	Z10	X11	Y11	Z11	X12	Y12	Z12	X13	Y13	Z13	X14	Y14	Z14	X15	Y15	Z15	X16	Y16	Z16	X17	Y17	Z17	X18	Y18	Z18	X19	Y19	Z19	X20	Y20	Z20	X21	Y21	Z21	X22	Y22	Z22	X23	Y23	Z23	X24	Y24	Z24	X25	Y25	Z25	X26	Y26	Z26	X27	Y27	Z27	X28	Y28	Z28	X29	Y29	Z29	X30	Y30	Z30	X31	Y31	Z31	X32	Y32	Z32	X33	Y33	Z33	X34	Y34	Z34	X35	Y35	Z35	X36	Y36	Z36	X37	Y37	Z37	X38	Y38	Z38	X39	Y39	Z39	X40	Y40	Z40	X41	Y41	Z41
																																																																																																																												
19	0.61	263.11289	1594.97177	-1891.33118	94.88421	1566.79855	-1870.88776	275.09882	1604.88693	-2018.30505	59.57353	1579.1893	-1965.99106	258.22147	1354.99481	-1969.11194	112.5131	1332.0491	-1960.16586	246.76517	1399.11926	-2092.45483	102.65665	1389.59808	-2076.73859	187.97964	1224.8616	-2145.84503	197.53849	1298.8855	-1913.25958	206.18052	1204.00467	-1860.17197	343.45154	1380.52826	-2026.71646	416.25675	1165.92178	-2062.80838	432.79457	1067.01904	-2043.08167	427.68333	980.36491	-2057.99683	382.1233	841.9857	-1968.86673	454.27036	841.17638	-1977.01324	437.02293	786.68129	-1927.77802	34.36993	1361.04156	-2002.08054	-22.79379	1161.14647	-2064.83688	-54.15713	1033.87978	-2016.44623	-56.76116	935.99312	-1998.59299	12.51538	825.91255	-1914.98718	-60.79594	811.43211	-1909.4603	-40.63034	778.67287	-1872.06665	329.72443	948.95088	-1960.20096	60.33688	950.495	-1952.66998	271.03312	992.99828	-2128.80661	104.27767	1028.65501	-2125.83084	318.77542	656.25656	-2103.32932	315.18002	503.76686	-2052.05002	263.54319	308.82324	-2032.30545	283.17011	158.461	-2103.01483	223.02402	109.8992	-2152.73636	253.17135	81.76472	-1977.69318	44.43928	673.11897	-2089.56223	62.14569	507.35291	-1978.83606	60.74009	335.14572	-2010.44403	41.36011	148.54269	-2084.83185	81.55319	104.76202	-2153.02689	59.7887	84.09609	-1980.52917
20	0.643	264.24755	1594.9501	-1889.86389	96.17755	1566.6011	-1869.72534	276.48621	1605.14328	-2016.83365	60.80426	1579.35318	-1964.944	258.85201	1355.2272	-1968.14743	112.15791	1332.19284	-1960.7869	248.25033	1399.76105	-2091.10672	104.18547	1390.56976	-2076.47354	189.60777	1226.0643	-2146.08398	197.88452	1299.01688	-1913.00751	206.09379	1203.68393	-1860.56442	344.53201	1381.47003	-2025.02472	417.88807	1166.6362	-2059.95728	434.23481	1067.90565	-2040.19867	429.58008	981.39282	-2055.45288	383.91853	842.33391	-1966.64429	456.26934	842.08679	-1974.70413	438.65982	787.11403	-1925.77133	35.49142	1362.09122	-2002.34177	-22.05755	1162.33315	-2064.89868	-53.14928	1034.96635	-2016.23459	-55.12915	936.96465	-1997.83722	14.59156	827.06169	-1914.95041	-57.78291	812.84607	-1907.98172	-37.16591	780.71526	-1870.11353	329.85458	949.28108	-1960.09918	59.84444	951.80382	-1954.56421	271.76361	992.94739	-2128.90869	105.40604	1029.1674	-2127.52075	318.55581	656.26778	-2103.0455	314.73913	503.76846	-2051.74911	263.16187	308.84449	-2032.16888	283.09368	158.55546	-2102.89047	223.09914	109.88537	-2152.72156	253.10188	81.74361	-1977.68036	43.80412	673.69644	-2089.85291	61.99159	508.32428	-1978.4465	61.35599	336.09631	-2010.50781	42.90604	149.24269	-2084.59381	84.05175	105.83406	-2152.22702	60.1832	84.18589	-1980.04501
21	0.677	265.17918	1594.28101	-1888.34213	96.91181	1566.30325	-1868.42224	277.57408	1604.71863	-2015.2449	61.80668	1579.27597	-1963.43338	259.11514	1354.80942	-1967.5061	113.10318	1332.00043	-1961.01303	249.42156	1400.25238	-2090.41687	105.21344	1391.03943	-2076.27441	190.70414	1226.91322	-2146.65115	197.85875	1298.31039	-1913.18481	205.71617	1202.5367	-1861.44012	345.23563	1381.27411	-2023.57178	419.22626	1166.77528	-2058.27805	435.49572	1067.95509	-2038.22159	431.19198	981.44791	-2053.60687	385.40146	841.9268	-1964.81995	457.68284	842.20772	-1972.63809	439.83067	787.0697	-1923.98193	36.12723	1362.30286	-2002.81082	-22.00619	1162.54654	-2065.76553	-52.95791	1035.19608	-2017.00623	-54.2659	937.0134	-1997.69241	19.12978	829.01924	-1913.56094	-55.28013	813.68805	-1906.74149	-34.08161	782.23709	-1868.80508	328.81832	949.4323	-1959.92813	58.57743	952.84386	-1956.40488	271.9573	992.55104	-2129.06357	105.85561	1029.19426	-2129.26102	318.02677	656.26755	-2102.54181	314.10883	503.87196	-2051.3652	262.67672	308.88319	-2032.07062	282.99236	158.65339	-2102.84378	223.12401	109.87862	-2152.69897	253.04537	81.7659	-1977.6741	43.46213	673.89946	-2090.7605	61.33479	508.84888	-1978.80966	61.23898	336.41502	-2010.70526	44.06423	149.34269	-2084.47647	86.15704	105.9436	-2151.77826	60.36536	84.20972	-1979.72046
22	0.71	265.7839	1593.00064	-1886.91574	97.73415	1565.18005	-1867.07855	278.1633	1603.94226	-2013.82172	62.42533	1578.68683	-1962.36938	259.14936	1353.73474	-1967.33612	111.84134	1331.13144	-1961.51337	250.06573	1400.06226	-2089.99146	105.7653	1390.89966	-2076.34354	190.99068	1227.07458	-2147.35306	197.41734	1296.85303	-1913.63907	204.63963	1200.85899	-1862.36679	345.51426	1380.32791	-2022.67929	419.83257	1165.80322	-2057.13943	436.35506	1067.09435	-2037.37885	432.37289	980.50896	-2052.68845	386.11378	841.28258	-1963.75702	458.52707	841.69647	-1971.19537	440.4493	786.68228	-1922.26898	36.19368	1361.79382	-2003.32642	-22.56747	1162.00989	-2067.06589	-53.3093	1034.48204	-2018.34152	-53.97121	936.22269	-1998.21182	20.73555	829.60281	-1913.51685	-53.49086	813.76411	-1906.07925	-31.86965	782.98569	-1867.86819	327.37686	949.64508	-1959.80957	56.70913	952.95532	-1957.99713	271.48352	991.91879	-2129.31488	105.55845	1028.43483	-2130.81085	317.42695	656.29227	-2102.24762	313.52377	503.88851	-2050.99487	262.27127	308.75284	-2031.88797	282.86621	158.54078	-2102.78687	223.14747	109.79166	-2152.7388	252.93232	81.77467	-1977.70233	43.31713	673.37959	-2092.51907	59.80823	508.46661	-1980.12238	59.81	335.80997	-2010.95627	43.63477	148.74217	-2085.03021	85.97641	105.11861	-2152.04346	60.06817	84.13131	-1979.94614
23	0.743	266.14054	1591.25061	-1885.85236	97.97941	1563.73672	-1866.21857	278.62473	1602.98935	-2012.81052	62.77242	1577.8038	-1961.34125	258.64441	1352.13287	-1967.61124	112.12846	1330.08789	-1962.39914	249.82931	1399.20258	-2090.18066	105.47169	1390.37048	-2076.65283	190.20159	1226.5094	-2148.1134	196.64005	1295.18524	-1914.4136	203.15569	1199.09103	-1863.24142	345.02998	1378.88626	-2022.94952	419.64363	1164.41841	-2057.9567	436.51325	1065.61623	-2037.84912	432.57435	978.8121	-2052.69806	386.23966	840.09872	-1963.06152	458.71986	840.43549	-1970.42511	440.6776	785.88333	-1921.13449	35.6479	1361.19156	-2004.00162	-23.14635	1161.42448	-2068.56689	-53.93459	1033.74214	-2020.16083	-53.93091	935.31769	-1999.5549	21.67351	829.79324	-1914.43771	-52.40084	813.33435	-1906.75674	-30.51053	783.17665	-1868.61526	325.55401	949.68086	-1959.92798	54.69215	951.96785	-1959.36432	270.33321	991.31622	-2129.65012	104.71354	1027.20764	-2132.14249	317.43845	656.1216	-2101.74606	313.15191	503.78773	-2050.32562	261.95944	308.5421	-2031.61728	282.83489	158.42189	-2102.60742	223.32228	109.63606	-2152.80304	252.84788	81.81184	-1977.74292	42.47988	672.3455	-2094.4426	58.16271	507.28607	-1982.23969	59.09742	334.67625	-2012.86438	42.77106	147.33971	-2085.80734	85.03881	103.2091	-2152.69852	59.69073	83.99308	-1980.57266
24	0.777	266.11618	1589.57672	-1884.97513	97.81341	1562.7742	-1865.64194	278.72156	1602.09305	-2011.7897	62.73074	1577.52853	-1960.62515	257.83995	1350.69763	-1968.29926	110.91131	1329.68872	-1962.68005	249.09813	1398.38226	-2090.60623	104.72239	1390.09842	-2076.94534	188.69881	1226.13098	-2148.84537	195.50798	1293.70834	-1915.22064	201.53549	1197.7684	-1864.05716	344.18999	1376.98486	-2023.37723	418.24062	1162.16316	-2059.10233	435.72441	1063.7912	-2039.03091	431.75533	976.81717	-2053.37616	385.87189	838.61687	-1962.86743	458.2655	838.77975	-1970.47012	440.43499	784.52164	-1920.72403	34.71635	1360.98862	-2004.34967	-24.28575	1161.29364	-2069.84451	-55.12715	1033.56567	-2022.1286	-54.27192	934.70818	-2001.13342	21.86188	829.47777	-1916.20911	-52.07333	812.59438	-1908.51212	-30.06982	782.84737	-1870.18723	323.55934	950.02274	-1959.67972	52.37134	950.84816	-1960.59784	268.78565	990.87532	-2130.20996	103.22305	1026.15456	-2133.228	317.46996	656.0952	-2101.14838	312.87283	503.88393	-2049.47983	261.80645	308.42136	-2031.20132	283.03749	158.39261	-2102.55615	223.68317	109.53157	-2152.94296	252.81952	81.83867	-1977.83585	41.26918	671.64314	-2096.33652	57.16098	506.41815	-1984.24774	58.20765	333.76984	-2013.63892	42.78797	146.1584	-2086.43265	84.9974	101.73783	-2153.25272	59.7927	83.96938	-1981.01196
